# xmcd CD database file
# Copyright (C) 1993-1998 Ti Kan
#
# Track frame offsets:
#  150
#  20953
#  43233
#  64753
#  87880
#  104748
#  122158
#  138623
#  160088
#  180983
#  202935
#  223553
#
# Disc length: 3241 seconds
#
# Revision: 1
# Processed by: cddbd v1.4b41PL1 Copyright (c) Steve Scherf et al.
# Submitted via: CDWizzard Release:4.60
#
DISCID=af0ca70c
DTITLE=Latimore - Catchin Up
DYEAR=1900
DGENRE=
TTITLE0=Lay Another Log On The Fire
TTITLE1=Meet Me In The Middle Of The Bed
TTITLE2=Skinny Little White Girl
TTITLE3=Your Sweetness Is My Weakness
TTITLE4=Snatchin' It Back
TTITLE5=Catches Up On Love
TTITLE6=I Smell A Rat
TTITLE7=Shake The Sheets
TTITLE8=If I Had Loved You More
TTITLE9=Somethin' 'bout  Cha
TTITLE10=Feed Your Hungry Man
TTITLE11=Deal Down And Dirty
EXTD=
EXTT0=
EXTT1=
EXTT2=
EXTT3=
EXTT4=
EXTT5=
EXTT6=
EXTT7=
EXTT8=
EXTT9=
EXTT10=
EXTT11=
PLAYORDER=
